<svg width="16" height="16" viewBox="0 0 16 16" fill="none" xmlns="http://www.w3.org/2000/svg">
<path d="M5.1742e-06 7.7605C5.1742e-06 3.2995 3.492 0 8 0C12.508 0 16 3.2995 16 7.7605C16 12.219 12.508 15.521 8 15.521C7.1925 15.521 6.41401 15.414 5.68751 15.2135C5.54553 15.175 5.3946 15.1871 5.26051 15.2475L3.66651 15.948C3.57033 15.9907 3.46511 16.0091 3.36014 16.0016C3.25517 15.994 3.15367 15.9607 3.06462 15.9046C2.97557 15.8485 2.9017 15.7714 2.84953 15.6799C2.79737 15.5885 2.76851 15.4857 2.76551 15.3805L2.71851 13.9535C2.71552 13.8677 2.6953 13.7834 2.65905 13.7056C2.6228 13.6277 2.57126 13.558 2.50751 13.5005C1.70564 12.777 1.0672 11.8908 0.634741 10.9011C0.202277 9.91145 -0.0142792 8.84096 -0.000494826 7.761L5.1742e-06 7.7605ZM5.54701 6.2995L3.20051 10.034C2.96601 10.3855 3.41401 10.7945 3.74751 10.534L6.27351 8.62C6.35644 8.55533 6.45859 8.52021 6.56376 8.52021C6.66892 8.52021 6.77107 8.55533 6.85401 8.62L8.7185 10.021C8.8514 10.1196 9.00318 10.1898 9.16439 10.2272C9.3256 10.2645 9.49278 10.2683 9.65551 10.2382C9.81824 10.2082 9.97303 10.1449 10.1102 10.0524C10.2474 9.95988 10.3641 9.84009 10.453 9.7005L12.7995 5.966C13.034 5.6145 12.586 5.2135 12.2525 5.466L9.7265 7.38C9.64508 7.44482 9.54408 7.48011 9.44 7.48011C9.33593 7.48011 9.23493 7.44482 9.1535 7.38L7.28651 5.979C7.15374 5.87882 7.0016 5.80734 6.83975 5.76908C6.67789 5.73083 6.50985 5.72663 6.34628 5.75677C6.18272 5.78691 6.02721 5.85071 5.88961 5.94414C5.75202 6.03757 5.63535 6.15859 5.54701 6.2995Z" fill="#355F2E"/>
</svg>
