<svg width="56" height="48" viewBox="0 0 56 48" fill="none" xmlns="http://www.w3.org/2000/svg">
<path d="M1.33334 17H54.6667M6.66667 17L8.01067 31.7813C8.64 38.6933 8.952 42.1467 11.2453 44.24C13.536 46.3333 17.0053 46.3333 23.944 46.3333H32.056C38.9947 46.3333 42.464 46.3333 44.7547 44.24C47.048 42.1467 47.36 38.6933 47.9893 31.7813L49.3333 17M6.66667 9H49.3333M20 9L21.6613 3.51467C21.9582 2.77225 22.4709 2.13585 23.133 1.68761C23.7951 1.23937 24.5764 0.999866 25.376 1H30.6267C31.4258 1.0004 32.2065 1.24016 32.8681 1.68836C33.5297 2.13656 34.0419 2.77267 34.3387 3.51467L36 9" stroke="#355F2E" stroke-width="2" stroke-linecap="round" stroke-linejoin="round"/>
</svg>
