<svg width="64" height="64" viewBox="0 0 64 64" fill="none" xmlns="http://www.w3.org/2000/svg">
<path d="M24 26.6667H16C15.2928 26.6667 14.6145 26.3857 14.1144 25.8856C13.6143 25.3855 13.3334 24.7073 13.3334 24V13.3334C13.3334 12.6261 13.6143 11.9478 14.1144 11.4477C14.6145 10.9476 15.2928 10.6667 16 10.6667H44.8054C45.196 10.6666 45.5819 10.7524 45.9358 10.9179C46.2896 11.0835 46.6028 11.3247 46.8531 11.6247C47.1034 11.9246 47.2848 12.2758 47.3843 12.6536C47.4839 13.0313 47.4993 13.4263 47.4294 13.8107L42.6667 40M21.3334 10.6667L26.6667 40M29.3334 40H40C42.1218 40 44.1566 40.8429 45.6569 42.3432C47.1572 43.8435 48 45.8783 48 48V53.3334C48 54.0406 47.7191 54.7189 47.219 55.219C46.7189 55.7191 46.0406 56 45.3334 56H24C23.2928 56 22.6145 55.7191 22.1144 55.219C21.6143 54.7189 21.3334 54.0406 21.3334 53.3334V48C21.3334 45.8783 22.1762 43.8435 23.6765 42.3432C25.1768 40.8429 27.2116 40 29.3334 40Z" stroke="#355F2E" stroke-width="2" stroke-linecap="round" stroke-linejoin="round"/>
<path d="M32 10.6667V8H37.3333V10.6667M34.6667 48V48.0267" stroke="#355F2E" stroke-width="2" stroke-linecap="round" stroke-linejoin="round"/>
</svg>
