<svg width="18" height="20" viewBox="0 0 18 20" fill="none" xmlns="http://www.w3.org/2000/svg">
<path d="M16.618 19.25C16.618 15.648 12.602 12.72 8.99996 12.72C5.39796 12.72 1.38196 15.648 1.38196 19.25M8.99996 9.456C10.1544 9.456 11.2616 8.99738 12.078 8.18104C12.8943 7.36469 13.353 6.25749 13.353 5.103C13.353 3.94851 12.8943 2.84131 12.078 2.02496C11.2616 1.20862 10.1544 0.75 8.99996 0.75C7.84547 0.75 6.73827 1.20862 5.92192 2.02496C5.10558 2.84131 4.64696 3.94851 4.64696 5.103C4.64696 6.25749 5.10558 7.36469 5.92192 8.18104C6.73827 8.99738 7.84547 9.456 8.99996 9.456Z" stroke="#757575" stroke-width="1.5" stroke-linecap="round" stroke-linejoin="round"/>
</svg>
