<svg width="50" height="29" viewBox="0 0 50 29" fill="none" xmlns="http://www.w3.org/2000/svg">
<path d="M33.0453 27.6666C34.5253 27.6666 35.7253 26.4719 35.7253 24.9999V23.7999C35.7253 22.9813 36.1626 22.2986 36.88 21.8933C38.7779 20.8269 40.5219 19.5072 42.064 17.9706C45.9378 14.1316 48.38 9.08161 48.984 3.66127C49.1466 2.19727 47.9306 0.999939 46.4506 0.999939H3.54931C2.06931 0.999939 0.853308 2.19994 1.01597 3.66127C1.61922 9.08126 4.06043 14.1312 7.93331 17.9706C9.39449 19.4271 11.0374 20.689 12.8213 21.7253C13.7013 22.2399 14.288 23.1573 14.2826 24.1733V24.9919C14.2826 25.3436 14.352 25.6919 14.4867 26.0167C14.6215 26.3416 14.819 26.6367 15.0679 26.8851C15.3168 27.1335 15.6123 27.3304 15.9375 27.4645C16.2626 27.5986 16.611 27.6673 16.9626 27.6666H33.0453Z" stroke="#355F2E" stroke-width="2" stroke-linecap="round" stroke-linejoin="round"/>
</svg>
