<svg width="50" height="34" viewBox="0 0 50 34" fill="none" xmlns="http://www.w3.org/2000/svg">
<path d="M30.3333 1H9C6.51467 1 5.272 1 4.29067 1.40533C3.64364 1.67366 3.05581 2.06681 2.56074 2.56234C2.06567 3.05787 1.67306 3.64606 1.40533 4.29333C1 5.272 1 6.51467 1 9C3.12173 9 5.15656 9.84285 6.65685 11.3431C8.15715 12.8434 9 14.8783 9 17C9 19.1217 8.15715 21.1566 6.65685 22.6569C5.15656 24.1571 3.12173 25 1 25C1 27.4853 1 28.728 1.40533 29.7067C1.67306 30.3539 2.06567 30.9421 2.56074 31.4377C3.05581 31.9332 3.64364 32.3263 4.29067 32.5947C5.272 33 6.51467 33 9 33H30.3333M30.3333 1H41C43.4853 1 44.728 1 45.7067 1.40533C46.3542 1.67337 46.9425 2.06639 47.4381 2.56193C47.9336 3.05747 48.3266 3.64582 48.5947 4.29333C49 5.272 49 6.51467 49 9C46.8783 9 44.8434 9.84285 43.3431 11.3431C41.8429 12.8434 41 14.8783 41 17C41 19.1217 41.8429 21.1566 43.3431 22.6569C44.8434 24.1571 46.8783 25 49 25C49 27.4853 49 28.728 48.5947 29.7067C48.3266 30.3542 47.9336 30.9425 47.4381 31.4381C46.9425 31.9336 46.3542 32.3266 45.7067 32.5947C44.728 33 43.4853 33 41 33H30.3333M30.3333 1V33" stroke="#355F2E" stroke-width="2" stroke-linecap="round" stroke-linejoin="round"/>
</svg>
