<svg width="16" height="16" viewBox="0 0 16 16" fill="none" xmlns="http://www.w3.org/2000/svg">
<path d="M5.632 15.632C6.4 15.864 7.176 16 8 16C10.1217 16 12.1566 15.1571 13.6569 13.6569C15.1571 12.1566 16 10.1217 16 8C16 6.94943 15.7931 5.90914 15.391 4.93853C14.989 3.96793 14.3997 3.08601 13.6569 2.34315C12.914 1.60028 12.0321 1.011 11.0615 0.608964C10.0909 0.206926 9.05058 0 8 0C6.94943 0 5.90914 0.206926 4.93853 0.608964C3.96793 1.011 3.08601 1.60028 2.34315 2.34315C0.842855 3.84344 0 5.87827 0 8C0 11.4 2.136 14.32 5.152 15.472C5.08 14.848 5.008 13.816 5.152 13.104L6.072 9.152C6.072 9.152 5.84 8.688 5.84 7.952C5.84 6.848 6.528 6.024 7.312 6.024C8 6.024 8.32 6.528 8.32 7.176C8.32 7.864 7.864 8.848 7.632 9.792C7.496 10.576 8.048 11.264 8.848 11.264C10.272 11.264 11.376 9.744 11.376 7.6C11.376 5.68 10 4.368 8.024 4.368C5.768 4.368 4.44 6.048 4.44 7.816C4.44 8.504 4.664 9.2 5.032 9.656C5.104 9.704 5.104 9.768 5.08 9.888L4.848 10.76C4.848 10.896 4.76 10.944 4.624 10.848C3.6 10.4 3.008 8.944 3.008 7.768C3.008 5.24 4.8 2.944 8.256 2.944C11.008 2.944 13.152 4.92 13.152 7.544C13.152 10.296 11.448 12.504 9.008 12.504C8.232 12.504 7.472 12.088 7.2 11.6L6.664 13.496C6.48 14.184 5.976 15.104 5.632 15.656V15.632Z" fill="#355F2E"/>
</svg>
