<svg width="64" height="64" viewBox="0 0 64 64" fill="none" xmlns="http://www.w3.org/2000/svg">
<path d="M36.392 47.2427C37.4054 46.984 38.2054 46.0507 39.8054 44.1787L53.6374 28.0214C58.7307 22.0747 60.6774 13.76 56.048 6.77069C54.5147 4.45336 51.9494 5.27736 50.3467 6.86136L6.86404 49.8453C6.37866 50.3219 5.99311 50.8905 5.72992 51.5177C5.46673 52.145 5.33118 52.8184 5.33118 53.4987C5.33118 54.1789 5.46673 54.8524 5.72992 55.4796C5.99311 56.1069 6.37866 56.6754 6.86404 57.152C7.40989 57.6897 8.06649 58.1018 8.78801 58.3595C9.50953 58.6173 10.2786 58.7145 11.0416 58.6445C11.8046 58.5744 12.5431 58.3387 13.2056 57.9538C13.868 57.5689 14.4386 57.0441 14.8774 56.416C17.4 52.768 21.352 43.3894 25.7574 41.7227C30.3227 39.9894 31.9147 48.384 36.392 47.2427Z" stroke="#355F2E" stroke-width="2" stroke-linecap="round" stroke-linejoin="round"/>
</svg>
