<svg width="20" height="18" viewBox="0 0 20 18" fill="none" xmlns="http://www.w3.org/2000/svg">
<path d="M12.25 12.75V14.625C12.25 15.1223 12.0525 15.5992 11.7008 15.9508C11.3492 16.3025 10.8723 16.5 10.375 16.5H2.875C2.37772 16.5 1.90081 16.3025 1.54917 15.9508C1.19754 15.5992 1 15.1223 1 14.625L1 3.375C1 2.87772 1.19754 2.40081 1.54917 2.04917C1.90081 1.69754 2.37772 1.5 2.875 1.5L10 1.5C11.0355 1.5 12.25 2.33953 12.25 3.375V5.25M15.25 12.75L19 9L15.25 5.25M6.25 9H18.25" stroke="#E57373" stroke-width="1.5" stroke-linecap="round" stroke-linejoin="round"/>
</svg>
