<svg width="18" height="20" viewBox="0 0 18 20" fill="none" xmlns="http://www.w3.org/2000/svg">
<path d="M9.56003 18.82C9.39682 18.9372 9.20096 19.0003 9.00002 19.0003C8.79909 19.0003 8.60323 18.9372 8.44002 18.82C3.61102 15.378 -1.51398 8.298 3.66702 3.182C5.08937 1.78285 7.00486 0.999124 9.00002 1C11 1 12.919 1.785 14.333 3.181C19.514 8.297 14.389 15.376 9.56003 18.82Z" stroke="#355F2E" stroke-width="1.5" stroke-linecap="round" stroke-linejoin="round"/>
<path d="M9 10C9.53043 10 10.0391 9.78929 10.4142 9.41421C10.7893 9.03914 11 8.53043 11 8C11 7.46957 10.7893 6.96086 10.4142 6.58579C10.0391 6.21071 9.53043 6 9 6C8.46957 6 7.96086 6.21071 7.58579 6.58579C7.21071 6.96086 7 7.46957 7 8C7 8.53043 7.21071 9.03914 7.58579 9.41421C7.96086 9.78929 8.46957 10 9 10Z" stroke="#355F2E" stroke-width="1.5" stroke-linecap="round" stroke-linejoin="round"/>
</svg>
