<svg width="20" height="20" viewBox="0 0 20 20" fill="none" xmlns="http://www.w3.org/2000/svg">
<path d="M5.687 7.68716L8.347 9.11316C8.85521 9.38627 9.42305 9.52952 10 9.53016M5.687 7.68716L1.884 5.65016C2.20842 5.11739 2.66932 4.68 3.219 4.38516L8.346 1.63716C8.85464 1.36441 9.42284 1.22168 10 1.22168C10.5772 1.22168 11.1454 1.36441 11.654 1.63716L14.31 3.06016M5.687 7.68716L14.183 3.13316L14.311 3.06316M10 9.53016C10.5772 9.53 11.1454 9.38709 11.654 9.11416L18.116 5.65016M10 9.53016L10 18.7792C10.5772 18.779 11.1454 18.6361 11.654 18.3632L16.781 15.6152C17.3389 15.316 17.8053 14.8711 18.1304 14.3278C18.4554 13.7845 18.6271 13.1633 18.627 12.5302V7.47016C18.627 6.82776 18.4502 6.19876 18.116 5.65016M1.884 5.64816C1.55031 6.19657 1.37387 6.8262 1.374 7.46816L1.374 12.5292C1.37382 13.1622 1.5453 13.7834 1.8702 14.3266C2.1951 14.8699 2.66124 15.3148 3.219 15.6142L8.346 18.3622C8.85442 18.6358 9.42263 18.7794 10 18.7802M18.116 5.65016C17.7916 5.11739 17.3307 4.68 16.781 4.38516L14.311 3.06116" stroke="#757575" stroke-width="1.5" stroke-linejoin="round"/>
</svg>
