<svg width="16" height="16" viewBox="0 0 16 16" fill="none" xmlns="http://www.w3.org/2000/svg">
<path d="M2.28571 -0.0370483C1.025 -0.0370483 0 0.987952 0 2.24867V13.6772C0 14.938 1.025 15.963 2.28571 15.963H13.7143C14.975 15.963 16 14.938 16 13.6772V2.24867C16 0.987952 14.975 -0.0370483 13.7143 -0.0370483H2.28571ZM12.8964 2.96295L9.18929 7.19867L13.55 12.963H10.1357L7.46429 9.46652L4.40357 12.963H2.70714L6.67143 8.43081L2.48929 2.96295H5.98929L8.40714 6.15938L11.2 2.96295H12.8964ZM11.5464 11.9487L5.47857 3.92367H4.46786L10.6036 11.9487H11.5429H11.5464Z" fill="#757575"/>
</svg>
