<svg width="20" height="20" viewBox="0 0 20 20" fill="none" xmlns="http://www.w3.org/2000/svg">
<path d="M5.68702 7.68716L8.34702 9.11316C8.85523 9.38627 9.42308 9.52952 10 9.53016M5.68702 7.68716L1.88402 5.65016C2.20844 5.11739 2.66934 4.68 3.21902 4.38516L8.34602 1.63716C8.85467 1.36441 9.42287 1.22168 10 1.22168C10.5772 1.22168 11.1454 1.36441 11.654 1.63716L14.31 3.06016M5.68702 7.68716L14.183 3.13316L14.311 3.06316M10 9.53016C10.5772 9.53 11.1454 9.38709 11.654 9.11416L18.116 5.65016M10 9.53016L10 18.7792C10.5772 18.779 11.1454 18.6361 11.654 18.3632L16.781 15.6152C17.339 15.316 17.8053 14.8711 18.1304 14.3278C18.4555 13.7845 18.6271 13.1633 18.627 12.5302V7.47016C18.627 6.82776 18.4502 6.19876 18.116 5.65016M1.88402 5.64816C1.55033 6.19657 1.3739 6.8262 1.37402 7.46816L1.37402 12.5292C1.37384 13.1622 1.54533 13.7834 1.87022 14.3266C2.19512 14.8699 2.66126 15.3148 3.21902 15.6142L8.34602 18.3622C8.85444 18.6358 9.42265 18.7794 10 18.7802M18.116 5.65016C17.7916 5.11739 17.3307 4.68 16.781 4.38516L14.311 3.06116" stroke="#355F2E" stroke-width="1.5" stroke-linejoin="round"/>
</svg>
