<svg width="34" height="50" viewBox="0 0 34 50" fill="none" xmlns="http://www.w3.org/2000/svg">
<path d="M9.00002 38.3333V49L17 43.6666L25 49V38.3333M22.2187 4.39995L21.3573 3.21595C20.857 2.52945 20.2014 1.9709 19.4442 1.58581C18.687 1.20072 17.8495 1 17 1C16.1505 1 15.313 1.20072 14.5558 1.58581C13.7986 1.9709 13.1431 2.52945 12.6427 3.21595L11.7813 4.39995L10.3333 4.17328C9.49426 4.04096 8.63577 4.10896 7.82797 4.37173C7.02017 4.6345 6.28597 5.08459 5.68531 5.68525C5.08465 6.2859 4.63456 7.02011 4.3718 7.8279C4.10903 8.6357 4.04103 9.49419 4.17335 10.3333L4.40002 11.7813L3.21601 12.6426C2.52852 13.1423 1.96901 13.7976 1.58323 14.5549C1.19745 15.3122 0.996338 16.15 0.996338 16.9999C0.996338 17.8499 1.19745 18.6877 1.58323 19.445C1.96901 20.2023 2.52852 20.8576 3.21601 21.3573L4.40002 22.2186L4.17335 23.6639C4.04055 24.5032 4.1082 25.362 4.37076 26.1702C4.63331 26.9783 5.08334 27.7129 5.68406 28.3139C6.28478 28.9149 7.01916 29.3652 7.82719 29.6281C8.63523 29.891 9.494 29.959 10.3333 29.8266L11.7813 29.5999L12.6427 30.7839C13.1431 31.4704 13.7986 32.029 14.5558 32.4141C15.313 32.7992 16.1505 32.9999 17 32.9999C17.8495 32.9999 18.687 32.7992 19.4442 32.4141C20.2014 32.029 20.857 31.4704 21.3573 30.7839L22.2187 29.5999L23.664 29.8266C24.5033 29.9594 25.3621 29.8918 26.1703 29.6292C26.9784 29.3666 27.713 28.9166 28.314 28.3159C28.9149 27.7152 29.3653 26.9808 29.6282 26.1728C29.8911 25.3647 29.9591 24.506 29.8267 23.6666L29.6 22.2186L30.784 21.3573C31.4705 20.8569 32.0291 20.2014 32.4142 19.4442C32.7992 18.6869 33 17.8495 33 16.9999C33 16.1504 32.7992 15.3129 32.4142 14.5557C32.0291 13.7985 31.4705 13.143 30.784 12.6426L29.6 11.7813L29.8267 10.3359C29.9595 9.49666 29.8918 8.63785 29.6293 7.8297C29.3667 7.02155 28.9167 6.28698 28.316 5.686C27.7153 5.08502 26.9809 4.63468 26.1728 4.37177C25.3648 4.10886 24.506 4.04085 23.6667 4.17328L22.2187 4.39995Z" stroke="#355F2E" stroke-width="2" stroke-linecap="round" stroke-linejoin="round"/>
</svg>
