<svg width="16" height="16" viewBox="0 0 16 16" fill="none" xmlns="http://www.w3.org/2000/svg">
<path fill-rule="evenodd" clip-rule="evenodd" d="M2.5 0C1.11929 0 0 1.11929 0 2.5V13.5C0 14.8807 1.11929 16 2.5 16H13.5C14.8807 16 16 14.8807 16 13.5V2.5C16 1.11929 14.8807 0 13.5 0H2.5ZM8.28583 6.72958V6.99208C7.95807 6.752 7.56162 6.62284 7.15533 6.62342C6.64747 6.62342 6.16039 6.82509 5.80116 7.18409C5.44194 7.5431 5.23998 8.03005 5.23967 8.53792C5.23998 9.04578 5.44194 9.53274 5.80116 9.89174C6.16039 10.2507 6.64747 10.4524 7.15533 10.4524C7.56182 10.4531 7.95791 10.3234 8.28583 10.0832C8.2863 10.1721 8.32198 10.2572 8.38507 10.3198C8.44816 10.3825 8.53351 10.4176 8.62242 10.4174H9.07158V6.72958H8.28583ZM5.03608 5.66383V5.54425H1.112V6.38425H3.83383L1.14583 9.71217C1.06417 9.83233 1 9.94783 1 10.2062V10.4174H4.6995C4.74367 10.4175 4.78743 10.4089 4.82826 10.392C4.86909 10.3752 4.9062 10.3504 4.93746 10.3192C4.96873 10.288 4.99353 10.2509 5.01045 10.2101C5.02737 10.1693 5.03608 10.1256 5.03608 10.0814V9.63342H2.18067L4.70242 6.46825C4.74817 6.41174 4.79524 6.35631 4.84358 6.302L4.86108 6.28217C5.00633 6.06867 5.03608 5.88667 5.03608 5.66383ZM9.82618 10.3354C9.87869 10.3879 9.94991 10.4174 10.0242 10.4174H10.5847V5.54425H9.74417V10.1374C9.74417 10.2117 9.77367 10.2829 9.82618 10.3354ZM13.809 6.74666C13.575 6.64981 13.3242 6.60001 13.0709 6.60008C12.5594 6.60024 12.069 6.80357 11.7074 7.16534C11.3459 7.52711 11.1428 8.0177 11.143 8.52917C11.1432 9.04064 11.3465 9.5311 11.7083 9.89265C12.07 10.2542 12.5606 10.4572 13.0721 10.4571C13.3253 10.457 13.5761 10.407 13.81 10.3101C14.044 10.2131 14.2565 10.071 14.4356 9.89183C14.6146 9.71269 14.7566 9.50006 14.8534 9.26605C14.9503 9.03204 15.0001 8.78125 15 8.528C14.9999 8.27475 14.95 8.02399 14.853 7.79004C14.756 7.55609 14.6139 7.34354 14.4347 7.16452C14.2556 6.98549 14.043 6.8435 13.809 6.74666ZM7.59501 9.58604C7.45532 9.64113 7.30604 9.66775 7.15592 9.66433C6.86153 9.65763 6.58146 9.53599 6.37563 9.32542C6.1698 9.11485 6.05455 8.83208 6.05455 8.53763C6.05455 8.24317 6.1698 7.9604 6.37563 7.74983C6.58146 7.53926 6.86153 7.41762 7.15592 7.41092C7.30604 7.4075 7.45532 7.43412 7.59501 7.48921C7.7347 7.54429 7.86197 7.62674 7.96935 7.7317C8.07673 7.83666 8.16205 7.96203 8.2203 8.10043C8.27855 8.23882 8.30855 8.38747 8.30855 8.53763C8.30855 8.68778 8.27855 8.83643 8.2203 8.97482C8.16205 9.11322 8.07673 9.23859 7.96935 9.34355C7.86197 9.44851 7.7347 9.53096 7.59501 9.58604ZM13.8732 9.33027C13.6604 9.54305 13.3718 9.66258 13.0709 9.66258C12.77 9.66258 12.4814 9.54305 12.2686 9.33027C12.0559 9.1175 11.9363 8.82891 11.9363 8.528C11.9363 8.22709 12.0559 7.9385 12.2686 7.72573C12.4814 7.51295 12.77 7.39342 13.0709 7.39342C13.3718 7.39342 13.6604 7.51295 13.8732 7.72573C14.086 7.9385 14.2055 8.22709 14.2055 8.528C14.2055 8.82891 14.086 9.1175 13.8732 9.33027Z" fill="#355F2E"/>
</svg>
