<svg width="18" height="20" viewBox="0 0 18 20" fill="none" xmlns="http://www.w3.org/2000/svg">
<path d="M16.618 19.25C16.618 15.648 12.602 12.72 9 12.72C5.398 12.72 1.382 15.648 1.382 19.25M9 9.456C10.1545 9.456 11.2617 8.99738 12.078 8.18104C12.8944 7.36469 13.353 6.25749 13.353 5.103C13.353 3.94851 12.8944 2.84131 12.078 2.02496C11.2617 1.20862 10.1545 0.75 9 0.75C7.84552 0.75 6.73831 1.20862 5.92197 2.02496C5.10562 2.84131 4.647 3.94851 4.647 5.103C4.647 6.25749 5.10562 7.36469 5.92197 8.18104C6.73831 8.99738 7.84552 9.456 9 9.456Z" stroke="#212121" stroke-width="1.5" stroke-linecap="round" stroke-linejoin="round"/>
</svg>
