<svg width="48" height="50" viewBox="0 0 48 50" fill="none" xmlns="http://www.w3.org/2000/svg">
<path d="M12.4987 18.8321L19.592 22.6348C20.9472 23.3631 22.4615 23.7451 24 23.7468M12.4987 18.8321L2.35733 13.4001C3.22244 11.9794 4.4515 10.813 5.91733 10.0268L19.5893 2.69876C20.9457 1.97143 22.4609 1.59082 24 1.59082C25.5391 1.59082 27.0543 1.97143 28.4107 2.69876L35.4933 6.49342M12.4987 18.8321L35.1547 6.68809L35.496 6.50143M24 23.7468C25.5392 23.7463 27.0544 23.3652 28.4107 22.6374L45.6427 13.4001M24 23.7468V48.4108C25.5392 48.4103 27.0544 48.0292 28.4107 47.3014L42.0827 39.9734C43.5705 39.1756 44.8141 37.9891 45.681 36.5404C46.5479 35.0917 47.0056 33.435 47.0053 31.7468V18.2534C47.0053 16.5404 46.5339 14.863 45.6427 13.4001M2.35733 13.3948C1.46748 14.8572 0.996994 16.5362 0.99733 18.2481V31.7441C0.996842 33.4321 1.45414 35.0886 2.32053 36.5373C3.18692 37.986 4.42997 39.1726 5.91733 39.9708L19.5893 47.2988C20.9451 48.0284 22.4603 48.4114 24 48.4134M45.6427 13.4001C44.7776 11.9794 43.5485 10.813 42.0827 10.0268L35.496 6.49609" stroke="#355F2E" stroke-width="2" stroke-linejoin="round"/>
</svg>
