<svg width="56" height="46" viewBox="0 0 56 46" fill="none" xmlns="http://www.w3.org/2000/svg">
<path d="M48 37.6667C48 39.4348 47.2976 41.1305 46.0474 42.3807C44.7971 43.631 43.1014 44.3333 41.3333 44.3333C39.5652 44.3333 37.8695 43.631 36.6193 42.3807C35.369 41.1305 34.6667 39.4348 34.6667 37.6667C34.6667 35.8986 35.369 34.2029 36.6193 32.9526C37.8695 31.7024 39.5652 31 41.3333 31C43.1014 31 44.7971 31.7024 46.0474 32.9526C47.2976 34.2029 48 35.8986 48 37.6667ZM21.3333 37.6667C21.3333 39.4348 20.631 41.1305 19.3807 42.3807C18.1305 43.631 16.4348 44.3333 14.6667 44.3333C12.8986 44.3333 11.2029 43.631 9.95262 42.3807C8.70238 41.1305 8 39.4348 8 37.6667C8 35.8986 8.70238 34.2029 9.95262 32.9526C11.2029 31.7024 12.8986 31 14.6667 31C16.4348 31 18.1305 31.7024 19.3807 32.9526C20.631 34.2029 21.3333 35.8986 21.3333 37.6667Z" stroke="#355F2E" stroke-width="2" stroke-linecap="round" stroke-linejoin="round"/>
<path d="M34.6667 37.6665H21.3333M48 37.6665H50.0347C50.6213 37.6665 50.9147 37.6665 51.16 37.6345C52.0428 37.5246 52.8638 37.1235 53.4931 36.4947C54.1223 35.8659 54.5241 35.0452 54.6347 34.1625C54.6667 33.9145 54.6667 33.6212 54.6667 33.0345V25.6665C54.6667 21.0694 52.8405 16.6606 49.5899 13.41C46.3392 10.1594 41.9304 8.33317 37.3333 8.33317M36 32.3332V9.6665C36 5.89584 36 4.0105 34.8267 2.83984C33.6587 1.6665 31.7733 1.6665 28 1.6665H9.33334C5.56268 1.6665 3.67734 1.6665 2.50668 2.83984C1.33334 4.00784 1.33334 5.89317 1.33334 9.6665V30.9998C1.33334 33.4932 1.33334 34.7385 1.86934 35.6665C2.2204 36.2745 2.72532 36.7794 3.33334 37.1305C4.26134 37.6665 5.50668 37.6665 8.00001 37.6665" stroke="#355F2E" stroke-width="2" stroke-linecap="round" stroke-linejoin="round"/>
</svg>
