<svg width="16" height="16" viewBox="0 0 16 16" fill="none" xmlns="http://www.w3.org/2000/svg">
<path d="M2.28571 -0.0371094C1.025 -0.0371094 0 0.987891 0 2.24861V13.6772C0 14.9379 1.025 15.9629 2.28571 15.9629H13.7143C14.975 15.9629 16 14.9379 16 13.6772V2.24861C16 0.987891 14.975 -0.0371094 13.7143 -0.0371094H2.28571ZM12.8964 2.96289L9.18929 7.19861L13.55 12.9629H10.1357L7.46429 9.46646L4.40357 12.9629H2.70714L6.67143 8.43075L2.48929 2.96289H5.98929L8.40714 6.15932L11.2 2.96289H12.8964ZM11.5464 11.9486L5.47857 3.9236H4.46786L10.6036 11.9486H11.5429H11.5464Z" fill="#355F2E"/>
</svg>
